<?xml version="1.0" encoding="UTF-8" standalone="no"?>
<!-- Generator: Adobe Illustrator 16.0.0, SVG Export Plug-In . SVG Version: 6.00 Build 0)  -->
<!DOCTYPE svg  PUBLIC '-//W3C//DTD SVG 1.1//EN'  'http://www.w3.org/Graphics/SVG/1.1/DTD/svg11.dtd'>
<svg id="Layer_1" xmlns="http://www.w3.org/2000/svg" xml:space="preserve" height="31px" viewBox="0 0 31 31" width="31px" version="1.1" y="0px" x="0px" xmlns:xlink="http://www.w3.org/1999/xlink" enable-background="new 0 0 31 31">
<g id="Layer_1_2_" display="none">
	<g id="Layer_1_1_" display="inline">
		<g fill="#C4C4C4">
			<path d="m12.333 19.48c1.927 0 3.715-0.888 5.101-2.377v-0.196c-0.69-1.298-1.856-2.272-2.958-2.825-0.414 0.764-1.273 1.27-2.192 1.27s-1.752-0.506-2.167-1.27c-1.14 0.572-2.178 1.593-2.954 2.962 0.077 0.097 0.144 0.197 0.228 0.29 0.014 0.016 0.073 0.027 0.086 0.043 1.226 1.33 3.019 2.103 4.856 2.103"/>
			<path d="m15.451 3.25c-6.877 0-12.451 5.505-12.451 12.295 0 2.131 0.55 4.133 1.514 5.88 0.149-1.507 0.54-2.93 1.168-4.249l-0.004-0.006 0.094-0.182c0.025-0.055 0.049-0.108 0.076-0.162l0.503-0.855c0.915-1.43 2.089-2.489 3.396-3.085l0.486-0.206c0.036-0.012 0.072-0.021 0.107-0.034 0.04-0.013 0.08-0.023 0.12-0.037 0.111-0.035 0.221-0.069 0.333-0.097 0.073-0.019 0.149-0.033 0.225-0.049 0.078-0.016 0.156-0.035 0.237-0.049 0.323-0.055 0.649-0.085 0.979-0.085s0.657 0.029 0.979 0.085c0.08 0.014 0.157 0.033 0.237 0.049 0.075 0.016 0.149 0.03 0.224 0.049 0.112 0.028 0.223 0.062 0.334 0.097 0.039 0.013 0.08 0.024 0.12 0.037 0.035 0.013 0.072 0.022 0.106 0.034l0.585 0.206c0.917 0.42 1.921 1.072 2.611 1.916v-0.167h6.229v10.317c2.766-2.257 4.341-5.632 4.341-9.408 0-6.789-5.674-12.294-12.549-12.294m7.516 5.92h-1.384v1.367h0.692v2.732h0.689v0.683h-4.843v-3.416h0.69v-2.732h2.768v0.683h1.384l0.004 0.683z"/>
			<path d="m15.451 27.84c0.833 0 1.646-0.085 2.432-0.236 0.555-1.336 0.896-3.055 0.896-4.848 0-1.609-0.295-3.107-0.855-4.508-1.465 1.564-3.523 2.47-5.69 2.47-2.163 0-4.218-0.927-5.682-2.485-0.575 1.404-0.866 2.898-0.866 4.522 0 0.144 0.011 0.284 0.016 0.427 2.281 2.834 5.797 4.658 9.749 4.658"/>
		</g>
	</g>
	<g id="Layer_2" display="inline">
		<g fill="#C4C4C4">
			<path d="m17.324 5.829c-0.604 0-0.93 1.438-0.93 2.79 0 1.353 0.326 2.791 0.93 2.791 0.605 0 0.932-1.438 0.932-2.791s-0.326-2.79-0.932-2.79"/>
			<path d="m11.628 12.324c-0.499 0-0.767 0.972-0.767 1.887s0.268 1.887 0.767 1.887 0.767-0.972 0.767-1.887-0.268-1.887-0.767-1.887"/>
			<path d="m15.5 3.25c-6.903 0-12.5 5.512-12.5 12.311 0 4.96 2.984 9.345 7.274 11.294 0.113-1.146 0.255-2.639 0.383-2.639h1.965c0.163 0.686 0.344 2.055 0.465 3.541 0.678 0.133 1.377 0.061 2.09 0.076 0.116-2.595 0.475-5.667 0.782-7.717h2.693c0.283 2.05 0.611 4.611 0.752 7.051 4.991-1.614 8.596-6.192 8.596-11.646 0-6.8-5.596-12.271-12.5-12.271m-2.832 20.284h-2.057c0.191-2.05 0.348-3.181 0.348-3.884 0-1.801-0.499-3.975-0.499-5.054 0-1.052 0.166-3.066 1.164-3.066s1.199 1.981 1.199 3.033c0 1.081-0.5 3.292-0.5 5.095-0.001 0.701 0.156 1.826 0.345 3.876m5.505-8.758c0 0.893 0.198 2.607 0.438 4.658h-2.613c0.242-2.051 0.441-3.766 0.441-4.658 0-2.29-0.635-4.887-0.635-6.261 0-1.337 0.211-3.839 1.48-3.839 1.268 0 1.521 2.488 1.521 3.825 0.004 1.374-0.632 3.986-0.632 6.275"/>
			<path d="m17.188 27.65c0.504-0.075 1.074-0.185 1.668-0.332-0.108-0.541-0.777-0.941-1.369-0.941-0.688 0-1.328 0.557-1.328 1.234 0 0.057-0.024 0.113-0.041 0.168 0.277-0.024 0.605-0.062 0.975-0.113 0.028-0.007 0.059-0.012 0.095-0.016"/>
		</g>
	</g>
	<g id="Layer_3" display="inline">
		<g fill="#C4C4C4">
			<path d="m21.557 17.85c2.312 0 4.502-1.07 5.973-2.868-0.619-1.078-1.375-1.964-2.215-2.633-0.303-0.299-0.699-0.559-1.168-0.764-0.021-0.012-0.043-0.026-0.063-0.037-0.001 0.001-0.004 0.002-0.005 0.005-0.707-0.298-1.562-0.474-2.489-0.474-0.944 0-1.817 0.185-2.532 0.495-0.008-0.009-0.015-0.017-0.02-0.024-1.342 0.666-2.547 1.858-3.463 3.457 0.093 0.112 0.178 0.23 0.277 0.336 0.015 0.017 0.032 0.035 0.047 0.051 1.441 1.551 3.496 2.456 5.658 2.456"/>
			<path d="m13.978 8.278c1.113 0 1.035 1.075 1.035 2.3 0 1.097 0.104 2.468-1.035 2.468h-2.707c0.021 0 0.035 0.124 0.035 0.219 0 0.402-0.212 0.783-0.532 0.992 0.028 0.369 0.086 1.589-0.311 2.943-0.472 1.616 0.772 8.188 0.858 9.601 0.012 0.194 0.015 0.445 0.01 0.741 0.721 0.252 1.471 0.433 2.245 0.551-0.808-1.948-1.189-4.351-1.189-6.344 0-2.366 0.494-4.581 1.458-6.589l-0.005-0.007 0.11-0.211c0.03-0.063 0.057-0.127 0.09-0.189l0.592-1c1.077-1.668 2.459-2.903 3.996-3.6l0.571-0.24c0.043-0.016 0.087-0.025 0.127-0.04 0.048-0.016 0.095-0.028 0.142-0.044 0.132-0.039 0.261-0.08 0.394-0.114 0.088-0.021 0.177-0.037 0.265-0.057 0.093-0.018 0.187-0.041 0.276-0.056 0.383-0.065 0.767-0.1 1.154-0.1s0.771 0.035 1.152 0.1c0.093 0.016 0.186 0.038 0.277 0.056 0.089 0.02 0.177 0.036 0.265 0.057 0.132 0.034 0.263 0.075 0.392 0.114 0.049 0.017 0.096 0.029 0.144 0.044 0.042 0.014 0.086 0.024 0.126 0.04l0.57 0.24c1.104 0.5 2.125 1.281 3.015 2.296-1.557-5.039-6.329-8.789-11.98-8.789-3.998 0-7.549 1.895-9.842 4.618h8.302z"/>
			<path d="m28 16.637c-1.703 1.67-4.012 2.624-6.441 2.624-2.545 0-4.967-1.112-6.688-2.933-0.677 1.639-1.019 3.322-1.019 5.217 0 2.614 0.628 5.146 1.585 6.702 0.028 0 0.054 0.003 0.081 0.003 6.69 0 12.138-5.146 12.482-11.613"/>
			<path d="m14.034 11.002h-9.736s-0.41 0.803-0.547 1.199c-0.007 0.022-0.092 0.162-0.1 0.162h10.383v-1.361z"/>
			<path d="m7.917 17.137c-0.387-1.327-0.341-2.586-0.312-2.986-0.345-0.204-0.576-0.466-0.576-0.888 0-0.095 0.014-0.219 0.034-0.219h-2.707c-0.36 0-0.628-0.236-0.838-0.367-0.333 1.104-0.518 2.189-0.518 3.396 0 3.665 1.651 6.905 4.254 9.149 0.357-2.497 1.031-6.826 0.663-8.085"/>
			<path d="m14.034 8.959h-9.04v0.045c0 0.11-0.039 0.245-0.113 0.356-0.112 0.171-0.241 0.355-0.344 0.531-0.073 0.124-0.238 0.274-0.238 0.4v0.029h9.736l-0.001-1.361z"/>
		</g>
	</g>
	<g id="Layer_4" display="inline">
		<g fill="#C4C4C4">
			<path d="m22.077 25.957l0.767-7.564c0.047-0.309-0.195-0.359-0.498-0.359h-13.232c-0.312 0-0.556 0.021-0.521 0.328l0.791 7.937c1.809 1 3.893 1.545 6.116 1.545 2.415-0.004 4.665-0.719 6.577-1.887"/>
			<path d="m18.395 15.252c0.002-0.156 0.021-3.364-1.356-4.741-0.3-0.301-0.631-0.554-1.256-0.45-0.452 0.074-0.862 0.228-1.231 0.598-1.392 1.389-1.385 4.506-1.384 4.66l0.016 0.666h5.199l0.012-0.733z"/>
			<path d="m15.5 3.25c-6.903 0-12.5 5.498-12.5 12.279 0 3.965 1.921 7.48 4.89 9.726l-0.873-8.771c-0.042-0.375 0.254-0.5 0.637-0.5h4.309c-0.279 0-0.468-0.356-0.468-0.755 0-0.241 0.189-0.608 0.468-0.608h0.269c0.034-1.365 0.276-3.346 1.635-4.705 0.582-0.571 1.243-0.866 1.913-0.866 1.025 0 1.426 0.348 1.918 0.833 1.346 1.354 1.587 3.374 1.62 4.739h0.312c0.279 0 0.55 0.373 0.55 0.613 0 0.566-0.39 0.75-0.39 0.75h4.021c0.367 0 0.664 0.149 0.607 0.523l-0.84 8.395c2.701-2.252 4.421-5.612 4.421-9.366 0.001-6.784-5.595-12.287-12.499-12.287"/>
		</g>
	</g>
	<g id="Layer_5" fill="#C4C4C4" display="inline">
		<path d="m16.078 16.986c1.207 0 2.37-1.604 2.37-3.255 0-1.21-0.402-2.64-2.37-2.64-1.969 0-2.371 1.43-2.371 2.64 0 1.431 1.118 3.255 2.371 3.255"/>
		<path d="m15.5 3.25c-6.904 0-12.5 5.504-12.5 12.295 0 6.79 5.596 12.295 12.5 12.295 6.902 0 12.5-5.505 12.5-12.295 0-6.791-5.598-12.295-12.5-12.295m-3.138 17.29l-2.345 2.308c-0.122 0.119-0.283 0.18-0.441 0.18-0.159 0-0.32-0.059-0.442-0.18-0.244-0.24-0.244-0.565 0-0.807l1.343-1.26h-4.454c-0.346 0-0.625-0.342-0.625-0.684 0-0.341 0.279-0.686 0.625-0.686h4.466l-1.355-1.327c-0.244-0.237-0.244-0.626 0-0.864 0.244-0.24 0.64-0.238 0.884 0.002l2.345 2.307c0.141 0.138 0.191 0.324 0.169 0.507 0.021 0.179-0.029 0.366-0.17 0.504m9.357 0.513c0 0.021-0.045 0.066-0.066 0.088-1.498 1.43-3.531 2.312-5.771 2.312-0.939 0-1.856-0.154-2.729-0.44-0.223-0.088-0.357-0.328-0.269-0.551 0.089-0.22 0.336-0.354 0.56-0.262 0.783 0.262 1.587 0.396 2.438 0.396 1.899 0 3.623-0.705 4.943-1.85-0.492-0.812-1.229-1.52-2.08-2.066-0.515 0.264-1.745 0.812-2.707 0.812-1.207 0-2.885-0.902-2.951-0.945-0.224-0.109-0.292-0.396-0.179-0.596 0.112-0.221 0.402-0.285 0.604-0.178 0.425 0.223 1.699 0.838 2.505 0.838 0.805 0 2.08-0.594 2.504-0.838 0.135-0.063 0.312-0.063 0.446 0 1.009 0.598 1.856 1.388 2.462 2.312 1.141-1.275 1.834-2.949 1.834-4.796 0-4.026-3.332-7.282-7.405-7.282-4.07 0-7.381 3.234-7.381 7.26 0 0.242-0.202 0.439-0.447 0.439-0.246 0-0.447-0.196-0.447-0.438 0-4.51 3.735-8.162 8.298-8.162 4.562 0 8.3 3.652 8.3 8.162-0.001 2.264-0.943 4.31-2.462 5.785m-8.885-7.321c0-2.244 1.186-3.52 3.266-3.52s3.268 1.276 3.268 3.52c0 2.156-1.566 4.136-3.268 4.136-1.655 0-3.266-2.046-3.266-4.136"/>
	</g>
	<g id="Layer_6" display="inline">
		<g fill="#C4C4C4">
			<path d="m16.078 16.986c1.207 0 2.37-1.604 2.37-3.254 0-1.21-0.402-2.64-2.37-2.64-1.969 0-2.371 1.43-2.371 2.64 0 1.43 1.118 3.254 2.371 3.254"/>
			<path d="m15.5 3.25c-6.904 0-12.5 5.505-12.5 12.295s5.596 12.295 12.5 12.295c6.902 0 12.5-5.505 12.5-12.295s-5.598-12.295-12.5-12.295m-10.01 16.775c-0.021-0.18 0.029-0.375 0.168-0.516l2.345-2.322c0.244-0.24 0.64-0.276 0.884-0.037 0.243 0.24 0.243 0.697 0 0.937l-1.356 1.327h4.466c0.345 0 0.625 0.345 0.625 0.684 0 0.342-0.28 0.686-0.625 0.686h-4.452l1.343 1.26c0.244 0.239 0.244 0.639 0 0.877-0.123 0.121-0.282 0.146-0.442 0.146-0.159 0-0.319-0.078-0.442-0.196l-2.346-2.32c-0.139-0.141-0.19-0.344-0.168-0.526m16.229 1.028c0 0.021-0.045 0.066-0.066 0.088-1.498 1.43-3.531 2.312-5.771 2.312-0.939 0-1.856-0.154-2.729-0.44-0.223-0.088-0.357-0.328-0.269-0.551 0.089-0.22 0.336-0.354 0.56-0.262 0.783 0.262 1.587 0.396 2.438 0.396 1.899 0 3.623-0.705 4.943-1.85-0.492-0.812-1.229-1.52-2.08-2.066-0.515 0.264-1.745 0.812-2.707 0.812-1.207 0-2.885-0.902-2.951-0.945-0.224-0.109-0.292-0.396-0.179-0.596 0.112-0.221 0.402-0.285 0.604-0.178 0.425 0.223 1.699 0.838 2.505 0.838 0.805 0 2.08-0.594 2.504-0.838 0.135-0.063 0.312-0.063 0.446 0 1.009 0.598 1.856 1.388 2.462 2.312 1.141-1.275 1.834-2.949 1.834-4.796 0-4.026-3.332-7.282-7.405-7.282-4.07 0-7.381 3.234-7.381 7.26 0 0.242-0.202 0.439-0.447 0.439-0.246 0-0.447-0.195-0.447-0.438 0-4.51 3.735-8.162 8.298-8.162 4.562 0 8.3 3.652 8.3 8.162-0.001 2.264-0.943 4.31-2.462 5.785m-8.885-7.321c0-2.244 1.186-3.52 3.266-3.52s3.268 1.276 3.268 3.52c0 2.156-1.566 4.136-3.268 4.136-1.655 0-3.266-2.046-3.266-4.136"/>
		</g>
	</g>
	<g id="Layer_7" display="inline">
		<g fill="#aaa">
			<path d="m22.246 16.501c-0.367 0.216-0.459 0.315-0.4 0.608 0.209 1.066-0.062 1.795-1.26 3.377-0.469 0.619-1.006 0.961-1.512 0.961-0.319 0-0.604-0.129-0.82-0.377-0.381-0.428-0.518-1.18-0.388-2.11 0.186-1.326-0.146-1.916-0.332-2.133-0.24 0.086-0.623 0.192-1.05 0.192-0.59 0-1.643-0.225-2.034-1.729-0.408-1.553 0.496-2.212 1.036-2.606 0.083-0.061 0.226-0.163 0.288-0.227-0.011-0.011-0.023-0.026-0.04-0.044-0.314-0.323-0.448-0.67-0.402-1.035 0.082-0.63 0.708-1.018 0.736-1.035 0.05-0.03 0.106-0.051 0.168-0.054 0.41-0.031 0.771-0.128 0.914-0.2-0.082-0.207-0.129-0.421-0.03-0.625 0.121-0.258 0.385-0.335 0.688-0.426l0.133-0.038c0.062-0.019 0.121-0.046 0.174-0.078-0.395-0.146-0.812-0.26-1.25-0.341-0.232 0.532-0.631 0.874-1.165 0.994-1.334 0.303-2.08 0.547-2.217 0.728-0.137 0.178-0.307 0.205-0.396 0.205-0.218 0-0.407-0.148-0.506-0.396-0.032-0.077-0.054-0.165-0.066-0.26-0.045 0.062-0.097 0.128-0.154 0.2-0.165 0.206-0.181 0.268-0.181 0.279 0.111 0.068 0.279 0.208 0.296 0.454 0.017 0.222-0.093 0.453-0.355 0.749-0.305 0.341-0.535 0.488-0.77 0.488-0.149 0-0.277-0.058-0.372-0.163-0.36 0.252-0.92 0.666-1.295 1.425-0.331 0.672-0.715 0.839-0.944 0.938-0.024 0.012-0.052 0.023-0.061 0.029 0.008 0.025 0.076 0.27 0.099 0.351 0.02 0.074 0.083 0.3 0.119 0.336 0.001-0.002 0.039-0.001 0.072-0.001 0.297 0.006 0.797 0.014 1.63 0.728 0.658 0.563 1.201 0.821 1.638 1.028 0.514 0.244 0.957 0.455 1.119 1.018 0.159 0.546-0.011 0.952-0.135 1.25-0.083 0.2-0.148 0.357-0.118 0.523 0.094 0.514-0.25 0.703-0.437 0.807-0.202 0.111-0.41 0.227-0.492 0.829-0.038 0.272-0.063 0.583-0.078 0.923 1.046 0.532 2.221 0.812 3.402 0.812 1.479 0 2.909-0.431 4.137-1.24 1.954-1.317 3.141-3.471 3.194-5.782-0.017 0.011-0.036 0.027-0.052 0.039-0.02 0.331-0.316 0.504-0.531 0.629"/>
			<path d="m12.367 19.609c-0.06-0.394 0.057-0.676 0.161-0.928 0.109-0.267 0.196-0.474 0.108-0.772-0.065-0.224-0.229-0.319-0.725-0.554-0.455-0.22-1.075-0.514-1.805-1.14-0.626-0.538-0.941-0.542-1.15-0.546-0.391-0.007-0.606-0.131-0.769-0.495-0.008 0.137-0.012 0.271-0.012 0.402 0 2.377 1.218 4.655 3.197 6.011 0.016-0.199 0.036-0.393 0.061-0.57 0.131-0.966 0.591-1.219 0.865-1.369 0.029-0.016 0.051-0.027 0.069-0.039"/>
			<path d="m9.01 12.959c0.474-0.96 1.164-1.443 1.578-1.733 0.085-0.06 0.177-0.121 0.209-0.154 0.073-0.111 0.195-0.18 0.334-0.18 0.12 0 0.268 0.045 0.354 0.232 0.022-0.023 0.046-0.049 0.072-0.079 0.072-0.081 0.115-0.14 0.139-0.178-0.366-0.318-0.363-0.689 0.014-1.194-0.049-0.024-0.091-0.057-0.128-0.097-1.46 0.914-2.559 2.324-3.075 3.938 0.153-0.071 0.322-0.184 0.503-0.555z"/>
			<path d="m16.085 8.475c-0.206-0.017-0.398-0.025-0.586-0.025-0.622 0-1.244 0.081-1.855 0.238 0.044 0.14 0.036 0.341-0.206 0.563-0.104 0.096-0.151 0.208-0.171 0.3 0.399-0.221 1.079-0.426 2.265-0.693 0.238-0.056 0.42-0.181 0.553-0.383z"/>
			<path d="m15.5 3.25c-6.903 0-12.5 5.505-12.5 12.295s5.597 12.295 12.5 12.295c6.902 0 12.5-5.505 12.5-12.295s-5.598-12.295-12.5-12.295m0 20.632c-4.608 0-8.356-3.687-8.356-8.219 0-4.533 3.748-8.219 8.356-8.219 4.607 0 8.355 3.687 8.355 8.219s-3.748 8.219-8.355 8.219"/>
			<path d="m18.854 9.259c-0.183 0.21-0.412 0.359-0.691 0.445l-0.141 0.043c-0.049 0.013-0.122 0.036-0.186 0.056 0.01 0.024 0.02 0.053 0.036 0.088 0.081 0.187 0.067 0.382-0.034 0.551-0.247 0.397-0.988 0.53-1.441 0.574-0.148 0.115-0.303 0.287-0.326 0.459-0.016 0.131 0.054 0.277 0.201 0.429 0.192 0.198 0.28 0.404 0.264 0.613-0.03 0.341-0.311 0.545-0.604 0.761-0.486 0.355-1.04 0.757-0.757 1.829 0.207 0.791 0.635 1.176 1.312 1.176 0.476 0 0.906-0.193 0.953-0.217 0.052-0.023 0.107-0.037 0.166-0.037 0.062 0 0.121 0.016 0.176 0.044 0.119 0.062 1.15 0.683 0.826 2.985-0.096 0.698-0.019 1.271 0.211 1.525 0.256 0.287 0.732 0.034 1.166-0.539 1.056-1.396 1.287-1.97 1.125-2.799-0.164-0.846 0.455-1.207 0.752-1.381 0.084-0.049 0.142-0.084 0.174-0.109 0.027-0.288 0.236-0.442 0.367-0.537 0.129-0.097 0.145-0.106-0.021-0.384-0.182-0.31-0.131-0.529-0.056-0.658 0.06-0.104 0.157-0.179 0.296-0.225-0.504-2.027-1.865-3.725-3.768-4.692"/>
		</g>
	</g>
</g>
<image xlink:href="../language.png" transform="matrix(.9999 0 0 .9999 8.001 7.501)" height="16" width="15" overflow="visible" display="none">
</image>
<g id="Layer_2_1_">
		<path d="m23 15.513c0 0.622-0.071 1.201-0.208 1.734-0.809 3.28-3.762 5.753-7.293 5.753-3.646 0-6.691-2.637-7.361-6.078-0.092-0.439-0.138-0.901-0.138-1.409v-0.024c0-0.208 0-0.369 0.023-0.508 0.162-2.265 1.339-4.276 3.045-5.546 0.069 0.161 0.184 0.3 0.393 0.253 0.531-0.116 0.854-0.486 1.129-0.393 0.276 0.092 0.531 0.416 0.162 0.624-0.369 0.209-0.461 0.554-0.253 0.717 0.208 0.162 0.484-0.185 0.9-0.185s0.9 0.486 0.854 0.878c-0.069 0.508-0.069 1.179 0.186 1.619 0.253 0.439 0.738 1.108 1.384 1.27 0.576 0.137 1.548 0.278 1.659 0.324 0.645 0.208 0.627 0.394 0.627 0.394s-0.855 0.531-0.946 0.833c-0.346 1.062 1.131 1.41 0.874 2.126-0.183 0.508-0.737 1.039-0.945 1.571-0.209 0.532-0.209 1.41 0.279 1.55 0 0-0.095-0.211 0.251-0.511 0.349-0.3 1.062-1.341 1.571-1.664 0.506-0.344 1.706-0.646 2.078-1.804 0.206-0.624 0.185-1.2-0.694-1.709-0.854-0.486-0.276-1.086-1.038-1.086s-0.786 0.3-1.316 0.093c-1.869-0.739-1.34-1.479-0.878-1.503 0.21-0.022 0.416 0.045 0.671 0.184 0.253 0.139 0.346 0 0.273-0.392-0.066-0.394 0.023-0.949 0.231-1.62 0.324-1.063-0.298-2.011-1.223-2.149-0.85-0.186-0.92 0.137-1.499 0.786-0.437 0.485-1.268 0.092-1.959-0.417-0.624-0.461-0.301-0.624-0.51-0.9 0.692-0.208 1.409-0.324 2.169-0.324 4.108 0 7.456 3.328 7.5 7.443v0.045l0.002 0.025z" fill="#C4C4C4"/>
</g>
</svg>
