<?xml version="1.0" encoding="utf-8"?>
<!-- Generator: Adobe Illustrator 16.0.0, SVG Export Plug-In . SVG Version: 6.00 Build 0)  -->
<!DOCTYPE svg PUBLIC "-//W3C//DTD SVG 1.1//EN" "http://www.w3.org/Graphics/SVG/1.1/DTD/svg11.dtd">
<svg version="1.1" id="Layer_1" xmlns="http://www.w3.org/2000/svg" xmlns:xlink="http://www.w3.org/1999/xlink" x="0px" y="0px"
	 width="150px" height="25px" viewBox="0 0 150 25" enable-background="new 0 0 150 25" xml:space="preserve">
<g>
	<path fill="#99A4AE" d="M0,24.575h2.47v-11.03h14.234v-2.188H2.47V2.608h14.603V0.424H0V24.575z M25.996,12.632
		c0,6.785,6.035,12.368,13.04,12.368c6.901,0,13.074-5.385,13.074-12.5S45.971,0,39.036,0C32.463,0,25.996,5.026,25.996,12.632
		 M28.463,12.632c0-6.007,5.005-10.444,10.573-10.444c5.837,0,10.607,4.7,10.607,10.343c0,5.744-4.905,10.282-10.607,10.282
		C33.301,22.812,28.463,18.144,28.463,12.632 M64.386,24.575h2.464V2.608h8.243c2.069,0,3.335,0.163,4.801,0.916
		c1.604,0.784,2.701,2.741,2.701,4.635c0,2.156-1.366,4.371-4.068,5.122c-1.102,0.328-2.824,0.36-5.961,0.36l9.027,10.934h3.104
		l-6.972-9.008c4.772-0.295,7.339-3.849,7.339-7.345c0-2.965-1.638-5.614-4.404-6.885c-1.131-0.523-2.767-0.913-6.067-0.913H64.386
		V24.575z M96.535,24.575h18.104v-2.185H99.01v-8.91h15.261v-2.19H99.01V2.608h15.63V0.424H96.535V24.575z M123.886,12.632
		c0,6.785,6.035,12.368,13.04,12.368C143.834,25,150,19.615,150,12.5S143.864,0,136.926,0C130.359,0,123.886,5.026,123.886,12.632
		 M126.353,12.632c0-6.007,5.003-10.444,10.573-10.444c5.838,0,10.607,4.7,10.607,10.343c0,5.744-4.904,10.282-10.607,10.282
		C131.19,22.812,126.353,18.144,126.353,12.632"/>
</g>
</svg>
